<svg xmlns="http://www.w3.org/2000/svg" width="76.397" height="68.758" viewBox="0 0 76.397 68.758">
  <path id="_15" data-name="15" d="M91.124,40H49.143a3.827,3.827,0,0,0-3.108,1.6l-5.6,7.846a1.273,1.273,0,0,0-.237.74v6.367a6.373,6.373,0,0,0,6.366,6.366h.318l1.425,1.9A28.06,28.06,0,0,0,26.186,92.2v1.273H17.273A1.273,1.273,0,0,0,16,94.751v5.093a1.273,1.273,0,0,0,1.273,1.273h3.156a18.389,18.389,0,0,0,14.939,7.64H73.029a18.389,18.389,0,0,0,14.939-7.64h3.156A1.273,1.273,0,0,0,92.4,99.845V94.751a1.273,1.273,0,0,0-1.273-1.273H82.211V92.2A28.059,28.059,0,0,0,60.1,64.819l1.425-1.9h2.865A3.824,3.824,0,0,0,68.2,59.1V57.808a12.735,12.735,0,0,0,5.923-1.8l3.342-2.005h.921v2.547a1.273,1.273,0,0,0,1.273,1.273h11.46A1.273,1.273,0,0,0,92.4,56.553V41.273A1.273,1.273,0,0,0,91.124,40ZM73.029,106.211H35.368a15.846,15.846,0,0,1-11.657-5.093H84.686A15.846,15.846,0,0,1,73.029,106.211Zm16.822-7.64h-71.3V96.025h71.3ZM79.664,92.2v1.273H28.733V92.2a25.466,25.466,0,1,1,50.932,0ZM54.2,64.192a28.186,28.186,0,0,0-3.058.168l-3.309-4.412V57.826H60.565v2.122L57.256,64.36A28.19,28.19,0,0,0,54.2,64.192Zm10.186-3.82H63.112V57.826h2.547V59.1A1.275,1.275,0,0,1,64.385,60.373Zm12.733-8.913a1.273,1.273,0,0,0-.655.181l-3.645,2.187a10.189,10.189,0,0,1-5.241,1.452H51.652a2.546,2.546,0,1,1,0-5.093H61.838V47.64H51.652a5.089,5.089,0,0,0-4.408,7.64h-.685a1.273,1.273,0,0,0-1.273,1.273v3.6a3.826,3.826,0,0,1-2.546-3.6V50.594l5.368-7.514a1.276,1.276,0,0,1,1.036-.533H78.391v8.913Zm12.733,3.82H80.938V42.547h8.913Z" transform="translate(-16 -40)" fill="#557260"/>
</svg>
